<mxfile host="app.diagrams.net" modified="2020-09-02T10:02:38.479Z" agent="5.0 (Windows NT 6.1; WOW64) AppleWebKit/537.36 (KHTML, like Gecko) Chrome/72.0.3626.81 Safari/537.36 SE 2.X MetaSr 1.0" etag="UM7iO5ExKTspvXzTUTmq" version="13.6.6" type="github">
  <diagram id="JFG310dgM5JgxOvnkHz8" name="Page-1">
    <mxGraphModel dx="1391" dy="747" grid="1" gridSize="10" guides="1" tooltips="1" connect="1" arrows="1" fold="1" page="1" pageScale="1" pageWidth="827" pageHeight="1169" math="0" shadow="0">
      <root>
        <mxCell id="0" />
        <mxCell id="1" parent="0" />
        <mxCell id="mZ5S8oPx8YVmJdACo5Ed-34" value="" style="edgeStyle=orthogonalEdgeStyle;rounded=0;orthogonalLoop=1;jettySize=auto;html=1;" parent="1" source="mZ5S8oPx8YVmJdACo5Ed-1" target="mZ5S8oPx8YVmJdACo5Ed-33" edge="1">
          <mxGeometry relative="1" as="geometry">
            <Array as="points">
              <mxPoint x="310" y="210" />
              <mxPoint x="310" y="210" />
            </Array>
          </mxGeometry>
        </mxCell>
        <mxCell id="TPgsrb7IbhU7XOlhmHNw-8" style="edgeStyle=orthogonalEdgeStyle;rounded=0;orthogonalLoop=1;jettySize=auto;html=1;entryX=0;entryY=0.5;entryDx=0;entryDy=0;" edge="1" parent="1" source="mZ5S8oPx8YVmJdACo5Ed-1" target="mZ5S8oPx8YVmJdACo5Ed-3">
          <mxGeometry relative="1" as="geometry" />
        </mxCell>
        <mxCell id="mZ5S8oPx8YVmJdACo5Ed-1" value="客户模特预约成功" style="rounded=1;whiteSpace=wrap;html=1;" parent="1" vertex="1">
          <mxGeometry x="240" y="122.5" width="140" height="45" as="geometry" />
        </mxCell>
        <mxCell id="mZ5S8oPx8YVmJdACo5Ed-10" value="" style="edgeStyle=orthogonalEdgeStyle;rounded=0;orthogonalLoop=1;jettySize=auto;html=1;" parent="1" source="mZ5S8oPx8YVmJdACo5Ed-3" edge="1">
          <mxGeometry relative="1" as="geometry">
            <mxPoint x="579.9999999999998" y="145" as="targetPoint" />
          </mxGeometry>
        </mxCell>
        <mxCell id="mZ5S8oPx8YVmJdACo5Ed-3" value="客户主动取消预约" style="rounded=1;whiteSpace=wrap;html=1;fillColor=#ffff88;strokeColor=#36393d;" parent="1" vertex="1">
          <mxGeometry x="450" y="120" width="80" height="50" as="geometry" />
        </mxCell>
        <mxCell id="mZ5S8oPx8YVmJdACo5Ed-12" value="" style="edgeStyle=orthogonalEdgeStyle;rounded=0;orthogonalLoop=1;jettySize=auto;html=1;exitX=1;exitY=0.5;exitDx=0;exitDy=0;" parent="1" source="mZ5S8oPx8YVmJdACo5Ed-9" edge="1">
          <mxGeometry relative="1" as="geometry">
            <mxPoint x="719.9999999999998" y="145" as="targetPoint" />
            <mxPoint x="679.9999999999998" y="145" as="sourcePoint" />
            <Array as="points" />
          </mxGeometry>
        </mxCell>
        <mxCell id="mZ5S8oPx8YVmJdACo5Ed-13" value="否" style="edgeLabel;html=1;align=center;verticalAlign=middle;resizable=0;points=[];" parent="mZ5S8oPx8YVmJdACo5Ed-12" vertex="1" connectable="0">
          <mxGeometry x="-0.1556" y="1" relative="1" as="geometry">
            <mxPoint as="offset" />
          </mxGeometry>
        </mxCell>
        <mxCell id="mZ5S8oPx8YVmJdACo5Ed-15" value="" style="edgeStyle=orthogonalEdgeStyle;rounded=0;orthogonalLoop=1;jettySize=auto;html=1;" parent="1" source="mZ5S8oPx8YVmJdACo5Ed-9" target="mZ5S8oPx8YVmJdACo5Ed-14" edge="1">
          <mxGeometry relative="1" as="geometry" />
        </mxCell>
        <mxCell id="mZ5S8oPx8YVmJdACo5Ed-18" value="是" style="edgeLabel;html=1;align=center;verticalAlign=middle;resizable=0;points=[];" parent="mZ5S8oPx8YVmJdACo5Ed-15" vertex="1" connectable="0">
          <mxGeometry x="-0.2296" y="1" relative="1" as="geometry">
            <mxPoint as="offset" />
          </mxGeometry>
        </mxCell>
        <mxCell id="mZ5S8oPx8YVmJdACo5Ed-9" value="是否满足取消预约条件" style="rhombus;whiteSpace=wrap;html=1;rounded=1;" parent="1" vertex="1">
          <mxGeometry x="575" y="100" width="100" height="90" as="geometry" />
        </mxCell>
        <mxCell id="TPgsrb7IbhU7XOlhmHNw-2" value="" style="edgeStyle=orthogonalEdgeStyle;rounded=0;orthogonalLoop=1;jettySize=auto;html=1;" edge="1" parent="1" source="mZ5S8oPx8YVmJdACo5Ed-14" target="TPgsrb7IbhU7XOlhmHNw-1">
          <mxGeometry relative="1" as="geometry" />
        </mxCell>
        <mxCell id="mZ5S8oPx8YVmJdACo5Ed-14" value="提交预约申请成功&lt;br&gt;权益暂时回退冻结状态" style="whiteSpace=wrap;html=1;rounded=1;" parent="1" vertex="1">
          <mxGeometry x="565" y="230" width="120" height="60" as="geometry" />
        </mxCell>
        <mxCell id="mZ5S8oPx8YVmJdACo5Ed-17" value="结束" style="ellipse;whiteSpace=wrap;html=1;" parent="1" vertex="1">
          <mxGeometry x="720" y="105" width="120" height="80" as="geometry" />
        </mxCell>
        <mxCell id="mZ5S8oPx8YVmJdACo5Ed-28" value="" style="edgeStyle=orthogonalEdgeStyle;rounded=0;orthogonalLoop=1;jettySize=auto;html=1;" parent="1" source="mZ5S8oPx8YVmJdACo5Ed-25" target="mZ5S8oPx8YVmJdACo5Ed-27" edge="1">
          <mxGeometry relative="1" as="geometry" />
        </mxCell>
        <mxCell id="mZ5S8oPx8YVmJdACo5Ed-29" value="否" style="edgeLabel;html=1;align=center;verticalAlign=middle;resizable=0;points=[];" parent="mZ5S8oPx8YVmJdACo5Ed-28" vertex="1" connectable="0">
          <mxGeometry x="-0.0741" relative="1" as="geometry">
            <mxPoint as="offset" />
          </mxGeometry>
        </mxCell>
        <mxCell id="mZ5S8oPx8YVmJdACo5Ed-31" value="" style="edgeStyle=orthogonalEdgeStyle;rounded=0;orthogonalLoop=1;jettySize=auto;html=1;" parent="1" source="mZ5S8oPx8YVmJdACo5Ed-25" target="mZ5S8oPx8YVmJdACo5Ed-30" edge="1">
          <mxGeometry relative="1" as="geometry" />
        </mxCell>
        <mxCell id="mZ5S8oPx8YVmJdACo5Ed-32" value="是" style="edgeLabel;html=1;align=center;verticalAlign=middle;resizable=0;points=[];" parent="mZ5S8oPx8YVmJdACo5Ed-31" vertex="1" connectable="0">
          <mxGeometry x="-0.1333" relative="1" as="geometry">
            <mxPoint as="offset" />
          </mxGeometry>
        </mxCell>
        <mxCell id="mZ5S8oPx8YVmJdACo5Ed-25" value="是否愿意改某期" style="rhombus;whiteSpace=wrap;html=1;rounded=1;" parent="1" vertex="1">
          <mxGeometry x="770" y="460" width="110" height="100" as="geometry" />
        </mxCell>
        <mxCell id="TPgsrb7IbhU7XOlhmHNw-17" style="edgeStyle=orthogonalEdgeStyle;rounded=0;orthogonalLoop=1;jettySize=auto;html=1;" edge="1" parent="1" source="mZ5S8oPx8YVmJdACo5Ed-27" target="TPgsrb7IbhU7XOlhmHNw-20">
          <mxGeometry relative="1" as="geometry">
            <mxPoint x="829.9999999999998" y="970" as="targetPoint" />
          </mxGeometry>
        </mxCell>
        <mxCell id="mZ5S8oPx8YVmJdACo5Ed-27" value="客服操作确认取消成功" style="whiteSpace=wrap;html=1;rounded=1;" parent="1" vertex="1">
          <mxGeometry x="770" y="665" width="120" height="60" as="geometry" />
        </mxCell>
        <mxCell id="mZ5S8oPx8YVmJdACo5Ed-36" value="" style="edgeStyle=orthogonalEdgeStyle;rounded=0;orthogonalLoop=1;jettySize=auto;html=1;" parent="1" source="mZ5S8oPx8YVmJdACo5Ed-30" target="mZ5S8oPx8YVmJdACo5Ed-35" edge="1">
          <mxGeometry relative="1" as="geometry" />
        </mxCell>
        <mxCell id="mZ5S8oPx8YVmJdACo5Ed-30" value="客服执行改期动作" style="whiteSpace=wrap;html=1;rounded=1;" parent="1" vertex="1">
          <mxGeometry x="930" y="480" width="120" height="60" as="geometry" />
        </mxCell>
        <mxCell id="TPgsrb7IbhU7XOlhmHNw-15" style="edgeStyle=orthogonalEdgeStyle;rounded=0;orthogonalLoop=1;jettySize=auto;html=1;entryX=0;entryY=0.5;entryDx=0;entryDy=0;" edge="1" parent="1" source="mZ5S8oPx8YVmJdACo5Ed-33" target="TPgsrb7IbhU7XOlhmHNw-9">
          <mxGeometry relative="1" as="geometry">
            <Array as="points">
              <mxPoint x="300" y="510" />
            </Array>
          </mxGeometry>
        </mxCell>
        <mxCell id="mZ5S8oPx8YVmJdACo5Ed-33" value="客服主动回访跟客户特殊情况要求取消预约" style="whiteSpace=wrap;html=1;rounded=1;fillColor=#cdeb8b;strokeColor=#36393d;" parent="1" vertex="1">
          <mxGeometry x="240" y="220" width="120" height="60" as="geometry" />
        </mxCell>
        <mxCell id="mZ5S8oPx8YVmJdACo5Ed-38" value="" style="edgeStyle=orthogonalEdgeStyle;rounded=0;orthogonalLoop=1;jettySize=auto;html=1;" parent="1" source="mZ5S8oPx8YVmJdACo5Ed-35" target="mZ5S8oPx8YVmJdACo5Ed-37" edge="1">
          <mxGeometry relative="1" as="geometry" />
        </mxCell>
        <mxCell id="mZ5S8oPx8YVmJdACo5Ed-41" value="是" style="edgeLabel;html=1;align=center;verticalAlign=middle;resizable=0;points=[];" parent="mZ5S8oPx8YVmJdACo5Ed-38" vertex="1" connectable="0">
          <mxGeometry x="-0.1593" y="1" relative="1" as="geometry">
            <mxPoint as="offset" />
          </mxGeometry>
        </mxCell>
        <mxCell id="mZ5S8oPx8YVmJdACo5Ed-40" value="" style="edgeStyle=orthogonalEdgeStyle;rounded=0;orthogonalLoop=1;jettySize=auto;html=1;entryX=0.5;entryY=1;entryDx=0;entryDy=0;" parent="1" source="mZ5S8oPx8YVmJdACo5Ed-35" target="TPgsrb7IbhU7XOlhmHNw-9" edge="1">
          <mxGeometry relative="1" as="geometry">
            <mxPoint x="629.9655172413793" y="650" as="targetPoint" />
            <Array as="points">
              <mxPoint x="990" y="850" />
              <mxPoint x="632" y="850" />
              <mxPoint x="632" y="555" />
            </Array>
          </mxGeometry>
        </mxCell>
        <mxCell id="mZ5S8oPx8YVmJdACo5Ed-45" value="否" style="edgeLabel;html=1;align=center;verticalAlign=middle;resizable=0;points=[];" parent="mZ5S8oPx8YVmJdACo5Ed-40" vertex="1" connectable="0">
          <mxGeometry x="-0.3017" y="-2" relative="1" as="geometry">
            <mxPoint as="offset" />
          </mxGeometry>
        </mxCell>
        <mxCell id="mZ5S8oPx8YVmJdACo5Ed-35" value="是否改期成功？（有可能这个动作还没执行被他人约了）" style="rhombus;whiteSpace=wrap;html=1;rounded=1;" parent="1" vertex="1">
          <mxGeometry x="910" y="630" width="160" height="140" as="geometry" />
        </mxCell>
        <mxCell id="mZ5S8oPx8YVmJdACo5Ed-43" value="" style="edgeStyle=orthogonalEdgeStyle;rounded=0;orthogonalLoop=1;jettySize=auto;html=1;" parent="1" source="mZ5S8oPx8YVmJdACo5Ed-37" target="mZ5S8oPx8YVmJdACo5Ed-42" edge="1">
          <mxGeometry relative="1" as="geometry" />
        </mxCell>
        <mxCell id="mZ5S8oPx8YVmJdACo5Ed-37" value="改期成功&lt;br&gt;预约信息更新" style="whiteSpace=wrap;html=1;rounded=1;" parent="1" vertex="1">
          <mxGeometry x="1190" y="670" width="120" height="60" as="geometry" />
        </mxCell>
        <mxCell id="mZ5S8oPx8YVmJdACo5Ed-42" value="结束" style="ellipse;whiteSpace=wrap;html=1;rounded=1;" parent="1" vertex="1">
          <mxGeometry x="1390" y="660" width="120" height="80" as="geometry" />
        </mxCell>
        <mxCell id="TPgsrb7IbhU7XOlhmHNw-10" style="edgeStyle=orthogonalEdgeStyle;rounded=0;orthogonalLoop=1;jettySize=auto;html=1;entryX=0.449;entryY=0.006;entryDx=0;entryDy=0;entryPerimeter=0;" edge="1" parent="1" source="TPgsrb7IbhU7XOlhmHNw-1" target="TPgsrb7IbhU7XOlhmHNw-9">
          <mxGeometry relative="1" as="geometry" />
        </mxCell>
        <mxCell id="TPgsrb7IbhU7XOlhmHNw-13" style="edgeStyle=orthogonalEdgeStyle;rounded=0;orthogonalLoop=1;jettySize=auto;html=1;entryX=0;entryY=0.5;entryDx=0;entryDy=0;" edge="1" parent="1" source="TPgsrb7IbhU7XOlhmHNw-1" target="mZ5S8oPx8YVmJdACo5Ed-27">
          <mxGeometry relative="1" as="geometry">
            <Array as="points">
              <mxPoint x="450" y="380" />
              <mxPoint x="450" y="695" />
            </Array>
          </mxGeometry>
        </mxCell>
        <mxCell id="TPgsrb7IbhU7XOlhmHNw-14" value="否" style="edgeLabel;html=1;align=center;verticalAlign=middle;resizable=0;points=[];" vertex="1" connectable="0" parent="TPgsrb7IbhU7XOlhmHNw-13">
          <mxGeometry x="-0.7398" y="-2" relative="1" as="geometry">
            <mxPoint as="offset" />
          </mxGeometry>
        </mxCell>
        <mxCell id="TPgsrb7IbhU7XOlhmHNw-1" value="客服是否想要客户改期？" style="rhombus;whiteSpace=wrap;html=1;rounded=1;" vertex="1" parent="1">
          <mxGeometry x="580" y="330" width="90" height="100" as="geometry" />
        </mxCell>
        <mxCell id="TPgsrb7IbhU7XOlhmHNw-16" style="edgeStyle=orthogonalEdgeStyle;rounded=0;orthogonalLoop=1;jettySize=auto;html=1;entryX=0;entryY=0.5;entryDx=0;entryDy=0;" edge="1" parent="1" source="TPgsrb7IbhU7XOlhmHNw-9" target="mZ5S8oPx8YVmJdACo5Ed-25">
          <mxGeometry relative="1" as="geometry" />
        </mxCell>
        <mxCell id="TPgsrb7IbhU7XOlhmHNw-9" value="客服确认回访客户" style="whiteSpace=wrap;html=1;rounded=1;" vertex="1" parent="1">
          <mxGeometry x="570" y="480" width="125" height="60" as="geometry" />
        </mxCell>
        <mxCell id="TPgsrb7IbhU7XOlhmHNw-12" value="是" style="text;html=1;align=center;verticalAlign=middle;resizable=0;points=[];autosize=1;" vertex="1" parent="1">
          <mxGeometry x="605" y="450" width="30" height="20" as="geometry" />
        </mxCell>
        <mxCell id="TPgsrb7IbhU7XOlhmHNw-22" value="" style="edgeStyle=orthogonalEdgeStyle;rounded=0;orthogonalLoop=1;jettySize=auto;html=1;" edge="1" parent="1" source="TPgsrb7IbhU7XOlhmHNw-20" target="TPgsrb7IbhU7XOlhmHNw-21">
          <mxGeometry relative="1" as="geometry" />
        </mxCell>
        <mxCell id="TPgsrb7IbhU7XOlhmHNw-20" value="权益回滚，状态更换等" style="rounded=1;whiteSpace=wrap;html=1;" vertex="1" parent="1">
          <mxGeometry x="769.9999999999998" y="940" width="120" height="60" as="geometry" />
        </mxCell>
        <mxCell id="TPgsrb7IbhU7XOlhmHNw-21" value="结束" style="ellipse;whiteSpace=wrap;html=1;rounded=1;" vertex="1" parent="1">
          <mxGeometry x="769.9999999999998" y="1070" width="120" height="80" as="geometry" />
        </mxCell>
      </root>
    </mxGraphModel>
  </diagram>
</mxfile>
